#define _width 64
#define _height 54
static char _bits[] = {
 0x00,0x00,0x00,0x00,0x00,0x00,0x00,0x00,0x00,0x00,0x00,0x00,0x00,0x00,0x00,
 0x00,0x00,0x00,0x00,0x00,0x00,0x00,0x00,0x00,0x00,0x00,0x00,0x00,0x00,0x00,
 0x00,0x00,0x00,0x00,0xff,0xff,0xff,0xff,0x00,0x00,0x00,0x00,0xff,0xff,0xff,
 0xff,0x00,0x00,0x00,0x00,0x03,0x81,0x81,0xc0,0x00,0x00,0x00,0x00,0x03,0x81,
 0x81,0xc0,0x00,0x00,0x00,0x00,0x03,0x81,0x81,0xc0,0x00,0x00,0x00,0x00,0x03,
 0x81,0x81,0xc0,0x00,0x00,0x00,0x00,0x03,0x81,0x81,0xc0,0x00,0x00,0x00,0x00,
 0x03,0x81,0x81,0xc0,0x00,0x00,0x00,0x00,0x03,0x81,0x81,0xc0,0x00,0x00,0x00,
 0x00,0x03,0x81,0x81,0xc0,0x00,0x00,0x00,0x00,0x03,0x81,0x81,0xc0,0x00,0x00,
 0x00,0x00,0x03,0x81,0x81,0xc0,0x00,0x00,0x00,0x00,0x03,0x81,0x81,0xc0,0x00,
 0x00,0x00,0x00,0x03,0x81,0x81,0xc0,0x00,0x00,0x00,0x00,0x03,0x81,0x81,0xc0,
 0x00,0x00,0x00,0x00,0x03,0x81,0x81,0xc0,0x00,0x00,0x00,0x00,0x03,0x81,0x81,
 0xc0,0x00,0x00,0x00,0x00,0x03,0x81,0x81,0xc0,0x00,0x00,0x00,0x00,0x03,0x81,
 0x81,0xc0,0x00,0x00,0x00,0x00,0xff,0xff,0xff,0xff,0x00,0x00,0x00,0x00,0x03,
 0x81,0x81,0xc0,0x00,0x00,0x00,0x00,0x03,0xc1,0x83,0xc0,0x00,0x00,0x00,0x00,
 0x03,0xb9,0x9d,0xc0,0x00,0x00,0x00,0x00,0x03,0x81,0x81,0xc0,0x00,0x00,0x00,
 0x00,0x03,0x81,0x81,0xc0,0x00,0x00,0x00,0x00,0x03,0x81,0x81,0xc0,0x00,0x00,
 0x00,0x00,0x03,0x81,0x81,0xc0,0x00,0x00,0x00,0x00,0x03,0x81,0x81,0xc0,0x00,
 0x00,0x00,0x00,0x03,0x81,0x81,0xc0,0x00,0x00,0x00,0x00,0x03,0x81,0x81,0xc0,
 0x00,0x00,0x00,0x00,0x03,0x81,0x81,0xc0,0x00,0x00,0x00,0x00,0x03,0x81,0x81,
 0xc0,0x00,0x00,0x00,0x00,0x03,0x81,0x81,0xc0,0x00,0x00,0x00,0x00,0x03,0x81,
 0x81,0xc0,0x00,0x00,0x00,0x00,0x03,0x81,0x81,0xc0,0x00,0x00,0x00,0x00,0x03,
 0x81,0x81,0xc0,0x00,0x00,0x00,0x00,0xff,0xff,0xff,0xff,0x00,0x00,0x00,0x00,
 0xff,0xff,0xff,0xff,0x00,0x00,0x00,0x18,0x60,0x00,0x00,0x06,0x18,0x00,0x00,
 0x18,0xf0,0x00,0x00,0x0f,0x18,0x00,0x00,0x38,0xf8,0x01,0x80,0x1f,0x1c,0x00,
 0x00,0x70,0x6c,0x03,0xc0,0x36,0x0e,0x00,0x00,0xf0,0x70,0x00,0x00,0x0e,0x0f,
 0x00,0x00,0xe0,0x3f,0x00,0x00,0xfc,0x07,0x00,0x00,0x80,0x1f,0x00,0x00,0xf8,
 0x01,0x00,0x00,0x00,0x07,0x00,0x00,0xe0,0x00,0x00,0x00,0x00,0x00,0x00,0x00,
 0x00,0x00,0x00,0x00,0x00,0x00,0x00,0x00,0x00,0x00,0x00,0x00,0x00,0x00,0x00,
 0x00,0x00,0x00,0x00,0x00,0x00,0x00,0x00,0x00,0x00,0x00,0x00 };
