#define _width 64
#define _height 64
static char _bits[] = {
 0x00,0x00,0x00,0x00,0x00,0x00,0x00,0x00,0x00,0x00,0x00,0x00,0x00,0x00,0x00,
 0x00,0x00,0x00,0x00,0x00,0x00,0x00,0x00,0x00,0x00,0x00,0x00,0x00,0x00,0x00,
 0x00,0x00,0x00,0x00,0x00,0xfc,0x3f,0x00,0x00,0x00,0x00,0x00,0x80,0xff,0xff,
 0x01,0x00,0x00,0x00,0x00,0xf0,0x3f,0xf0,0x0f,0x00,0x00,0x00,0x00,0xfc,0x10,
 0x00,0x3f,0x00,0x00,0x00,0x00,0x3f,0x10,0x00,0xfc,0x00,0x00,0x00,0x80,0x0f,
 0x30,0x00,0xf8,0x01,0x00,0x00,0xc0,0x03,0x28,0x00,0xd0,0x03,0x00,0x00,0xe0,
 0x01,0x28,0x00,0xb0,0x07,0x00,0x00,0x70,0x00,0x38,0x00,0x20,0x0e,0x00,0x00,
 0x38,0x00,0x30,0x00,0x40,0x1c,0x00,0x00,0x1c,0x00,0x00,0x00,0x40,0x38,0x00,
 0x00,0x1e,0x00,0x00,0x00,0xa0,0x70,0x00,0x00,0x5f,0x00,0x00,0x00,0xe0,0xf0,
 0x00,0x00,0x57,0x00,0x00,0x00,0x80,0xe0,0x00,0x80,0x73,0x00,0x00,0x00,0x00,
 0xc0,0x01,0x80,0x23,0x00,0x00,0x00,0x00,0xc0,0x01,0xc0,0x01,0x00,0x03,0xc0,
 0x00,0x80,0x03,0xc0,0x01,0xe0,0x07,0xe0,0x07,0x80,0x03,0xc0,0x00,0xf8,0x07,
 0xe0,0x1f,0x00,0x03,0xe0,0x00,0x7f,0x06,0x60,0xfe,0x00,0x07,0x60,0xe0,0x0f,
 0x07,0xe0,0xf0,0x07,0x06,0x60,0xe0,0x81,0x03,0xc0,0x81,0x07,0x06,0x70,0xe0,
 0xe1,0x03,0xc0,0x87,0x47,0x0e,0x70,0xc0,0xff,0x00,0x00,0xff,0x43,0x0e,0x30,
 0x80,0x7f,0x00,0x00,0xfe,0x41,0x0c,0x30,0x00,0x00,0x00,0x00,0x00,0x40,0x0c,
 0x30,0x00,0x00,0x00,0x00,0x00,0x80,0x0c,0x30,0x02,0x00,0x00,0x00,0x00,0x80,
 0x0c,0x30,0x02,0x00,0x00,0x00,0x00,0x80,0x0c,0x30,0x02,0x00,0x00,0x00,0x00,
 0x80,0x0c,0x30,0x02,0x00,0x00,0x00,0x00,0xc0,0x0c,0x30,0x02,0x00,0x00,0x00,
 0x00,0x00,0x0c,0x70,0x0a,0x00,0x00,0x00,0x00,0x00,0x0e,0x70,0x0c,0x00,0x00,
 0x00,0x00,0x00,0x0e,0x60,0x00,0x00,0x00,0x00,0x00,0x00,0x06,0x60,0x00,0x00,
 0x00,0x00,0x00,0x00,0x06,0xe0,0x00,0x3e,0x00,0x00,0x00,0x00,0x07,0xc0,0x00,
 0xfe,0x7f,0x00,0x00,0x00,0x03,0xc0,0x01,0xe0,0xff,0x3f,0x00,0x80,0x03,0xc0,
 0x01,0x00,0xc0,0xff,0x1f,0x80,0x03,0x80,0x03,0x00,0x00,0xe0,0xff,0xc1,0x01,
 0x80,0x03,0x00,0x00,0x00,0xf8,0xc1,0x01,0x00,0x07,0x00,0x00,0x00,0x00,0xe0,
 0x00,0x00,0x0e,0x00,0x00,0x00,0x00,0xf0,0x00,0x00,0x0e,0x00,0x00,0x00,0x00,
 0xf0,0x00,0x00,0x1c,0x00,0x00,0x00,0x00,0xf8,0x00,0x00,0x38,0x00,0x00,0x00,
 0x00,0x7c,0x00,0x00,0xf0,0x00,0x00,0x00,0x00,0x6f,0x00,0x00,0xe0,0x01,0x00,
 0x00,0x80,0x07,0x00,0x00,0xc0,0x03,0x00,0x00,0xc0,0x03,0x00,0x00,0xc0,0x0f,
 0x00,0x00,0xf0,0x01,0x00,0x00,0x40,0x1f,0x00,0x00,0xf8,0x01,0x00,0x00,0x40,
 0xfd,0x00,0x00,0x7f,0x01,0x00,0x00,0x40,0xf1,0x0f,0xf0,0x4f,0x01,0x00,0x00,
 0xc0,0x81,0xff,0xff,0x81,0x01,0x00,0x00,0x80,0x01,0xfc,0x3f,0x00,0x00,0x00,
 0x00,0x00,0x00,0x00,0x00,0x00,0x00,0x00,0x00,0x00,0x00,0x00,0x00,0x00,0x00,
 0x00,0x00,0x00,0x00,0x00,0x00,0x00,0x00,0x00,0x00,0x00,0x00,0x00,0x00,0x00,
 0x00,0x00 };
