#define _width 64
#define _height 64
static char _bits[] = {
 0x00,0x00,0x00,0x00,0x00,0x00,0x00,0x00,0x00,0x00,0x00,0x00,0x00,0x00,0x80,
 0x00,0x00,0x00,0x00,0x00,0x00,0x00,0xd8,0x0d,0x00,0x00,0x00,0x00,0x00,0x00,
 0x98,0x0c,0x00,0x00,0x00,0xfc,0x3f,0x00,0xa0,0x02,0x00,0x06,0x80,0xff,0xff,
 0x01,0xc8,0x09,0x00,0x03,0xf0,0x0f,0xf0,0x0f,0xfc,0x1f,0x80,0x31,0xfc,0x00,
 0x00,0x3f,0xc8,0x09,0x80,0x18,0x3f,0x00,0x00,0xfc,0xa0,0x02,0x00,0x8c,0x0f,
 0x00,0x00,0xf0,0x99,0x0c,0x60,0xc6,0x03,0x00,0x00,0xc0,0xdb,0x0d,0x20,0xe2,
 0x01,0x00,0x00,0x80,0x87,0x00,0x30,0x73,0x00,0x00,0x00,0x00,0x0e,0x00,0x10,
 0x39,0x00,0x00,0x00,0x00,0x1c,0x00,0x98,0x1c,0x00,0x00,0x00,0x00,0x38,0x00,
 0x08,0x0e,0x40,0x00,0x00,0x02,0x70,0x00,0x18,0x0f,0x60,0x00,0x00,0x06,0xf0,
 0x00,0x00,0x07,0x70,0x00,0x00,0x0e,0xe0,0x00,0x80,0x03,0x78,0x00,0x00,0x1e,
 0xc0,0x01,0x80,0x03,0xfc,0x00,0x00,0x3f,0xc0,0x01,0xc0,0x01,0xfe,0x00,0x00,
 0x7f,0x80,0x03,0xc0,0x01,0xff,0x00,0x00,0xff,0x80,0x03,0xc0,0x80,0xff,0x00,
 0x00,0xff,0x01,0x03,0xe0,0xc0,0xff,0x00,0x00,0xff,0x03,0x07,0x60,0x00,0x7e,
 0x00,0x00,0x7e,0x00,0x06,0x60,0x00,0x7e,0x00,0x00,0x7e,0x00,0x06,0x70,0x80,
 0x3c,0x00,0x00,0x3c,0x01,0x0e,0x70,0x80,0x01,0x00,0x00,0x80,0x01,0x0e,0x30,
 0x00,0x0f,0x00,0x00,0xf0,0x00,0x0c,0x30,0x00,0x00,0x00,0x00,0x00,0x00,0x0c,
 0x30,0x00,0x00,0x00,0x00,0x00,0x00,0x0c,0x30,0x00,0x00,0x00,0x00,0x00,0x00,
 0x0c,0x30,0x00,0xc0,0xff,0xff,0x03,0x00,0x0c,0x30,0x00,0xfe,0xff,0xff,0x7f,
 0x00,0x0c,0x30,0x80,0xff,0x00,0x00,0xff,0x01,0x0c,0x30,0x60,0x00,0x00,0x00,
 0x00,0x06,0x0c,0x70,0x60,0x88,0x88,0x11,0x11,0x06,0x0e,0x70,0x60,0x88,0x88,
 0x11,0x11,0x06,0x0e,0x60,0x70,0xff,0xff,0xff,0xff,0x0e,0x06,0x60,0x30,0x88,
 0x88,0x11,0x11,0x0c,0x06,0xe0,0x30,0x08,0x88,0x11,0x10,0x0c,0x07,0xc0,0x30,
 0x00,0x00,0x00,0x00,0x0c,0x03,0xc0,0xe1,0xff,0x01,0x80,0xff,0x87,0x03,0xc0,
 0xe1,0xff,0xff,0xff,0xff,0x87,0x03,0xc0,0x03,0x00,0x00,0x00,0x00,0xc0,0x01,
 0xc0,0x03,0x00,0x00,0x00,0x20,0xc4,0x01,0xc0,0x07,0x00,0x00,0x00,0x40,0xe4,
 0x30,0x80,0x0e,0x00,0x00,0x00,0x40,0x74,0x20,0x80,0x0e,0x00,0x00,0x00,0x40,
 0x74,0x30,0x80,0x1d,0x00,0x00,0x00,0xc0,0x3e,0x13,0x00,0x39,0x00,0x00,0x00,
 0xc0,0x1e,0x11,0x00,0xf9,0x00,0x00,0x00,0x80,0x8f,0x19,0x00,0xfb,0x01,0x00,
 0x00,0x80,0xc7,0x08,0x00,0xca,0x03,0x00,0x00,0xc0,0x63,0x00,0x00,0x8a,0x0f,
 0x00,0x00,0xf0,0x31,0x00,0x00,0x0e,0x1f,0x00,0x00,0xf8,0x11,0x02,0x00,0x0c,
 0xfe,0x00,0x00,0xbf,0x81,0x03,0x00,0x04,0xf2,0x0f,0xf0,0x8f,0xe1,0x00,0x00,
 0x00,0x94,0xff,0xff,0x01,0x30,0x00,0x00,0x00,0x0c,0xfc,0x3f,0x00,0x00,0x00,
 0x00,0x00,0x0c,0x00,0x00,0x00,0x00,0x00,0x00,0x00,0x08,0x00,0x00,0x00,0x00,
 0x00,0x00,0x00,0x00,0x00,0x00,0x00,0x00,0x00,0x00,0x00,0x00,0x00,0x00,0x00,
 0x00,0x00 };
