#define no_wifi_width 16
#define no_wifi_height 16
static unsigned char no_wifi_bits[] = {
   0x00, 0x00, 0xe0, 0x67, 0xf8, 0x77, 0xfc, 0x3b, 0x0e, 0x5c, 0xe6, 0x6e,
   0x70, 0x07, 0x98, 0x1b, 0xc0, 0x01, 0xe0, 0x06, 0x70, 0x04, 0xb8, 0x01,
   0x9c, 0x01, 0x0c, 0x00, 0x00, 0x00, 0x00, 0x00 };
