#define _width 64
#define _height 64
static char _bits[] = {
 0x00,0x00,0x00,0x00,0x00,0x00,0x00,0x00,0x00,0x00,0x00,0x00,0x00,0x00,0x00,
 0x00,0x00,0x00,0x00,0x00,0x00,0x00,0x00,0x00,0x00,0x00,0x00,0x00,0x00,0x00,
 0x00,0x00,0x00,0x00,0x00,0xfc,0x3f,0x00,0x00,0x00,0x00,0x00,0x80,0xff,0xff,
 0x01,0x00,0x00,0x00,0x00,0xf0,0x0f,0xf0,0x0f,0x00,0x00,0x00,0x00,0xfc,0x00,
 0x00,0x3f,0x00,0x00,0x00,0x00,0x3f,0x00,0x00,0xfc,0x00,0x00,0x00,0x80,0x0f,
 0x00,0x00,0xf0,0x01,0x00,0x00,0xc0,0x03,0x00,0x00,0xc0,0x03,0x00,0x00,0xe0,
 0x01,0x00,0x00,0x80,0x07,0x00,0x00,0x70,0x00,0x00,0x00,0x00,0x0e,0x00,0x00,
 0x38,0x00,0x00,0x00,0x00,0x1c,0x00,0x00,0x1c,0x00,0x00,0x00,0x00,0x38,0x00,
 0x00,0x0e,0x00,0x00,0x00,0x00,0x70,0x00,0x00,0x0f,0xc0,0x01,0x80,0x03,0xf0,
 0x00,0x00,0x87,0xc1,0x01,0x80,0x83,0xe1,0x00,0x80,0x83,0xe7,0x00,0x00,0xe7,
 0xc1,0x01,0x80,0x03,0x7f,0x00,0x00,0xfe,0xc0,0x01,0xc0,0x01,0x7e,0x00,0x00,
 0x7e,0x80,0x03,0xc0,0x01,0x7c,0x00,0x00,0x3e,0x80,0x03,0xc0,0x00,0xfc,0x00,
 0x00,0x3f,0x00,0x03,0xe0,0x00,0xee,0x03,0xc0,0x77,0x00,0x07,0xe0,0x01,0x87,
 0x07,0xe0,0xe1,0x80,0x07,0xe0,0x83,0x03,0x07,0xe0,0xc0,0xc1,0x07,0x70,0x87,
 0x03,0x06,0x60,0xc0,0xe1,0x0e,0x70,0xce,0x01,0x00,0x00,0x80,0x73,0x0e,0x30,
 0xdc,0x00,0x00,0x00,0x00,0x3b,0x0c,0x30,0x38,0x00,0xfc,0x3f,0x00,0x1c,0x0c,
 0x30,0x70,0xf8,0xff,0xff,0x1f,0x0e,0x0c,0x30,0xf0,0xff,0x07,0xe0,0xff,0x0f,
 0x0c,0x30,0xe0,0x0f,0x00,0x00,0xf0,0x07,0x0c,0x30,0xc0,0x01,0x00,0x00,0x80,
 0x03,0x0c,0x30,0xc0,0x01,0x00,0x00,0x80,0x03,0x0c,0x30,0xc0,0x00,0x00,0x00,
 0x00,0x03,0x0c,0x70,0xc0,0x00,0x00,0x00,0x00,0x03,0x0e,0x70,0xc0,0x00,0x00,
 0x00,0x00,0x03,0x0e,0x60,0xc0,0x00,0x00,0x00,0x00,0x03,0x06,0x60,0xe0,0x00,
 0x00,0x00,0x00,0x07,0x06,0xe0,0xe0,0x00,0x00,0x00,0x00,0x07,0x07,0xc0,0x63,
 0x00,0x00,0x00,0x00,0xc6,0x03,0xc0,0x6f,0x00,0x00,0x00,0x00,0xf6,0x03,0xc0,
 0x7f,0x00,0x00,0x00,0x00,0xfe,0x03,0x80,0x7b,0x00,0x00,0x00,0x00,0xde,0x01,
 0x80,0x63,0x00,0x00,0x00,0x00,0xc6,0x01,0x00,0x67,0x00,0x00,0x00,0x00,0xe6,
 0x00,0x00,0x6e,0x00,0x00,0x00,0x00,0x76,0x00,0x00,0x6e,0x00,0x00,0x00,0x00,
 0x76,0x00,0x00,0x7c,0x00,0x00,0x00,0x00,0x3e,0x00,0x00,0xf8,0x00,0x00,0x00,
 0x00,0x1f,0x00,0x00,0xf0,0x07,0x00,0x00,0xe0,0x0f,0x00,0x00,0xe0,0xff,0x00,
 0x00,0xff,0x07,0x00,0x00,0xc0,0xff,0xff,0xff,0xff,0x03,0x00,0x00,0x80,0x8f,
 0xff,0xff,0xf1,0x01,0x00,0x00,0x00,0x1f,0x00,0x00,0xf8,0x00,0x00,0x00,0x00,
 0xfc,0x00,0x00,0x3f,0x00,0x00,0x00,0x00,0xf0,0x0f,0xf0,0x0f,0x00,0x00,0x00,
 0x00,0x80,0xff,0xff,0x01,0x00,0x00,0x00,0x00,0x00,0xfc,0x3f,0x00,0x00,0x00,
 0x00,0x00,0x00,0x00,0x00,0x00,0x00,0x00,0x00,0x00,0x00,0x00,0x00,0x00,0x00,
 0x00,0x00,0x00,0x00,0x00,0x00,0x00,0x00,0x00,0x00,0x00,0x00,0x00,0x00,0x00,
 0x00,0x00 };
