#define scale_width 11
#define scale_height 20
static unsigned char scale_bits[] = {
   0x07, 0x00, 0x39, 0x00, 0x41, 0x00, 0x80, 0x00, 0x40, 0x01, 0x20, 0x02,
   0x00, 0x02, 0x00, 0x02, 0x00, 0x04, 0x00, 0x04, 0x00, 0x04, 0x00, 0x04,
   0x00, 0x02, 0x00, 0x02, 0x20, 0x02, 0x40, 0x01, 0x80, 0x00, 0x41, 0x00,
   0x39, 0x00, 0x07, 0x00 };
