#define voc_width 16
#define voc_height 16
static unsigned char voc_bits[] = {
   0x00, 0x00, 0xe0, 0x00, 0xf0, 0x01, 0xe8, 0x02, 0x04, 0x04, 0x0e, 0x0c,
   0x0e, 0x14, 0x0e, 0x24, 0x04, 0x74, 0x08, 0x72, 0xf0, 0x71, 0x20, 0x20,
   0x40, 0x17, 0x80, 0x0f, 0x00, 0x07, 0x00, 0x00 };
