#define _width 64
#define _height 64
static char _bits[] = {
 0x00,0x00,0x00,0x00,0x00,0x00,0x00,0x00,0x00,0x00,0x02,0x00,0x00,0x00,0x10,
 0x00,0x00,0x00,0x02,0x00,0x00,0x00,0x10,0x00,0x80,0x01,0x02,0x00,0x00,0x00,
 0x18,0x00,0x80,0x00,0x02,0xfc,0x3f,0x00,0x08,0x00,0x80,0x00,0x83,0xff,0xff,
 0x01,0x08,0x00,0x80,0x00,0xf1,0x0f,0xf0,0x0f,0x10,0x00,0x80,0x00,0xfc,0x00,
 0x00,0x3f,0x10,0x00,0x80,0x01,0x3f,0x00,0x00,0xfc,0x10,0x00,0x00,0x83,0x1f,
 0x00,0x00,0xf0,0x01,0x00,0x00,0xc2,0x13,0x00,0x00,0xc0,0x03,0x00,0x00,0xe3,
 0x59,0x00,0x00,0x82,0x07,0x08,0x00,0x71,0x48,0x00,0x00,0x02,0x0e,0x08,0x00,
 0x39,0x78,0x00,0x00,0x06,0x1c,0x18,0x00,0x1c,0x00,0x00,0x00,0x04,0x38,0x10,
 0x00,0x0e,0x00,0x00,0x00,0x0d,0x70,0x10,0x00,0x0f,0x00,0x00,0x00,0x09,0xf0,
 0x08,0x04,0x07,0x00,0x18,0x18,0x0f,0xe0,0x18,0x84,0x03,0x00,0x1c,0x38,0x06,
 0xc0,0x11,0x84,0x03,0x00,0x0e,0x70,0x00,0xc0,0x11,0xc4,0x01,0x00,0x0f,0xf0,
 0x00,0x80,0x13,0xc8,0x01,0xc0,0x07,0xe0,0x03,0x80,0x13,0xc8,0xc0,0xff,0x01,
 0x80,0xff,0x03,0x1b,0xe0,0xc0,0xff,0x0f,0xf0,0xff,0x03,0x07,0x60,0x00,0xff,
 0x1f,0xf8,0xff,0x00,0x06,0x60,0xe0,0x7f,0x1c,0x38,0xfe,0x07,0x06,0x70,0xe0,
 0x01,0x0c,0x30,0x80,0x07,0x0e,0x70,0x62,0x00,0x0e,0x70,0x00,0x06,0x0e,0x30,
 0xe2,0x00,0x07,0xe0,0x00,0x07,0x0c,0x30,0xc2,0xf7,0x07,0xe0,0xef,0x03,0x0c,
 0x30,0x83,0xff,0x01,0x80,0xff,0x01,0x0c,0x30,0x09,0x1e,0x00,0x00,0x78,0x00,
 0x0c,0x30,0x09,0x00,0x00,0x00,0x00,0x00,0x0c,0x30,0x0f,0x00,0x00,0x00,0x00,
 0x08,0x0c,0x30,0x00,0x00,0x00,0x00,0x00,0x08,0x0c,0x30,0x00,0x00,0x00,0x00,
 0x00,0x10,0x0c,0x70,0x00,0x00,0x00,0x00,0x00,0x10,0x0e,0x70,0x00,0x00,0x00,
 0x00,0x00,0x12,0x0e,0x60,0x00,0x00,0x00,0x00,0x00,0x32,0x06,0x60,0x00,0x00,
 0x00,0x00,0x00,0x22,0x06,0xe0,0x00,0x00,0x00,0x00,0x00,0x36,0x07,0xc0,0x00,
 0x00,0x00,0x00,0x00,0x1c,0x03,0xc0,0x01,0x00,0xf8,0x1f,0x00,0x80,0x03,0xc0,
 0x01,0xc0,0xff,0xff,0x03,0x80,0x03,0x80,0x03,0xf8,0x1f,0xf8,0x1f,0xc0,0x01,
 0x80,0x03,0x78,0x00,0x00,0x1e,0xc0,0x01,0x00,0x07,0x00,0x00,0x00,0x00,0xe0,
 0x00,0x00,0x0e,0x00,0x00,0x00,0x00,0x70,0x00,0x00,0x0e,0x00,0x00,0x00,0x00,
 0x70,0x00,0x00,0x1c,0x00,0x00,0x00,0x00,0x78,0x00,0x00,0x38,0x00,0x00,0x00,
 0x00,0x5c,0x00,0x00,0xf0,0x00,0x00,0x00,0x00,0x5f,0x00,0x00,0xe0,0x01,0x00,
 0x00,0x80,0x77,0x00,0x00,0xc0,0x03,0x00,0x00,0xc0,0x63,0x00,0x00,0x80,0x0f,
 0x00,0x00,0xf0,0x01,0x00,0x00,0x08,0x1f,0x00,0x00,0xf8,0x00,0x00,0x00,0x18,
 0xfc,0x00,0x00,0x3f,0x00,0x00,0x00,0x18,0xf0,0x0f,0xf0,0x0f,0x00,0x00,0x00,
 0x38,0x80,0xff,0xff,0x01,0x00,0x00,0x00,0x2c,0x00,0xfc,0x3f,0x00,0x00,0x00,
 0x00,0x24,0x00,0x00,0x00,0x00,0x00,0x00,0x00,0x3c,0x00,0x00,0x00,0x00,0x00,
 0x00,0x00,0x18,0x00,0x00,0x00,0x00,0x00,0x00,0x00,0x00,0x00,0x00,0x00,0x00,
 0x00,0x00 };
