#define _width 64
#define _height 54
static char _bits[] = {
 0x00,0x00,0x00,0x00,0x00,0x00,0x00,0x00,0x00,0x00,0x00,0x00,0x00,0x00,0x00,
 0x00,0x00,0x00,0x00,0x00,0x00,0x00,0x00,0x00,0x00,0x00,0x00,0x00,0x00,0x00,
 0x00,0x00,0x00,0x00,0x00,0x00,0x00,0x00,0x00,0x00,0x00,0x00,0x00,0x00,0x00,
 0x00,0x00,0x00,0x00,0x00,0x00,0x00,0x00,0xf0,0x01,0x00,0x00,0x00,0x00,0x00,
 0x00,0xf0,0x01,0x00,0x00,0x00,0x00,0x00,0xf0,0xb1,0x03,0x00,0x00,0x00,0x00,
 0x00,0xf8,0xf1,0x03,0x00,0x00,0x00,0x00,0x00,0x1c,0xf0,0x01,0x00,0x00,0x00,
 0x00,0x01,0x0c,0x00,0x00,0x00,0x00,0x00,0x80,0x01,0x0c,0x00,0x00,0x00,0x00,
 0x00,0x80,0x03,0x0c,0x00,0x00,0x00,0x00,0x00,0x00,0x03,0x0c,0x00,0x00,0x00,
 0x00,0x00,0x00,0xc7,0x1c,0x00,0x00,0x00,0x00,0x00,0x00,0xe7,0x1c,0x38,0x3c,
 0x00,0x00,0x00,0x00,0xff,0x78,0x1e,0x3c,0x00,0x00,0x00,0x80,0xff,0xf1,0x1f,
 0x7e,0x00,0x00,0x00,0xe0,0x9f,0xc1,0x07,0x7f,0x00,0x00,0x00,0xf0,0xb8,0x07,
 0x00,0xff,0x00,0x00,0x00,0x78,0x38,0x07,0x00,0xdb,0x00,0x00,0x60,0x38,0x70,
 0x6e,0x00,0x18,0x00,0x00,0xe0,0x18,0x78,0x6c,0x00,0x18,0x00,0x00,0xc0,0x1d,
 0x38,0x6c,0x00,0x18,0x00,0x00,0xc0,0x0f,0x30,0xec,0x00,0x18,0x00,0x00,0x80,
 0x1f,0x00,0xfc,0x00,0x18,0x00,0x00,0x80,0x1d,0x00,0xfe,0x01,0x00,0x00,0x00,
 0x80,0x3d,0x00,0x90,0x01,0x00,0x00,0x00,0xe0,0x1d,0x0f,0x9c,0x03,0x00,0x00,
 0x00,0xf8,0x00,0x3f,0x3f,0x03,0x00,0x00,0x00,0x3c,0x80,0xfb,0x37,0x07,0x00,
 0x00,0x00,0x1c,0xde,0xf9,0x31,0x07,0x00,0x00,0x00,0x0c,0x7f,0x7f,0x70,0x03,
 0x00,0x00,0x00,0x8c,0xf3,0x0f,0x60,0x03,0x00,0x00,0x00,0x9c,0xf1,0x03,0xe0,
 0x03,0x00,0x00,0x00,0xf8,0x7d,0x00,0xe0,0x01,0x00,0x00,0x00,0xf0,0x1f,0x00,
 0x70,0x00,0x00,0x00,0x00,0xc0,0x07,0x00,0xf8,0x00,0x00,0x00,0x00,0xf0,0x03,
 0x80,0xdf,0x03,0x00,0x00,0x00,0x78,0x00,0xe0,0x8f,0x07,0x00,0x00,0x00,0x3c,
 0x00,0xfc,0x03,0x0f,0x00,0x00,0x00,0x3c,0x00,0x3f,0x0f,0x0c,0x00,0x00,0x00,
 0x3c,0xc0,0x0f,0x7e,0x0c,0x00,0x00,0x00,0x7c,0xf0,0x1d,0xf8,0x0e,0x00,0x00,
 0x00,0x7c,0x7c,0xfc,0xc0,0x0f,0x00,0x00,0x00,0x78,0xff,0xf0,0xff,0x07,0x00,
 0x00,0x00,0xf8,0xe7,0xbf,0x7f,0x01,0x00,0x00,0x00,0xf8,0x83,0x1f,0x30,0x00,
 0x00,0x00,0x00,0xf0,0x00,0x00,0x00,0x00,0x00,0x00,0x00,0x00,0x00,0x00,0x00,
 0x00,0x00,0x00,0x00,0x00,0x00,0x00,0x00,0x00,0x00,0x00,0x00,0x00,0x00,0x00,
 0x00,0x00,0x00,0x00,0x00,0x00,0x00,0x00,0x00,0x00,0x00,0x00 };
