#define _width 64
#define _height 54
static char _bits[] = {
 0x00,0x00,0x00,0x00,0x00,0x00,0x00,0x00,0x00,0x00,0x00,0x00,0x00,0x00,0x00,
 0x00,0x00,0x00,0x00,0x00,0x00,0x00,0x00,0x00,0x00,0x00,0x00,0x00,0x00,0x00,
 0x00,0x00,0x00,0x00,0xff,0xff,0xff,0xff,0x00,0x00,0x00,0x80,0xff,0xff,0xff,
 0xff,0x01,0x00,0x00,0xc0,0x03,0x00,0x00,0xc0,0x03,0x00,0x00,0xe0,0x03,0x00,
 0x00,0xc0,0x07,0x00,0x00,0x70,0x03,0x00,0x00,0xc0,0x0e,0x00,0x00,0x38,0x03,
 0x00,0x00,0xc0,0x1c,0x00,0x00,0x3c,0x03,0x00,0x00,0xc0,0x3c,0x00,0x00,0x2e,
 0x03,0x00,0x00,0xc0,0x74,0x00,0x00,0x27,0x03,0x00,0x00,0xc0,0xe4,0x00,0x00,
 0x23,0x03,0x00,0x00,0xc0,0xc4,0x00,0x00,0x23,0x03,0x00,0x00,0xc0,0xc4,0x00,
 0x00,0x23,0x03,0x00,0x00,0xc0,0xc4,0x00,0x00,0x23,0x03,0x00,0x00,0xc0,0xc4,
 0x00,0x00,0x23,0x03,0x00,0x00,0xc0,0xc4,0x00,0x00,0x23,0x03,0x00,0x00,0xc0,
 0xc4,0x00,0x00,0x23,0x03,0x00,0x00,0xc0,0xc4,0x00,0x00,0x23,0x03,0x00,0x00,
 0xc0,0xc4,0x00,0x00,0x23,0x03,0x00,0x00,0xc0,0xc4,0x00,0x00,0x23,0x03,0x00,
 0x00,0xc0,0xc4,0x00,0x00,0x23,0x03,0x00,0x00,0xc0,0xc4,0x00,0x00,0xa3,0x03,
 0x00,0x00,0xc0,0xc5,0x00,0x00,0xe3,0x03,0x00,0x00,0xc0,0xc7,0x00,0x00,0x63,
 0x03,0x00,0x00,0xc0,0xc6,0x00,0x00,0x33,0x03,0x00,0x00,0xc0,0xcc,0x00,0x00,
 0x3b,0x03,0x00,0x00,0xc0,0xdc,0x00,0x00,0x2f,0x03,0x00,0x00,0xc0,0xf4,0x00,
 0x00,0x27,0x03,0x00,0x00,0xc0,0xe4,0x00,0x00,0x23,0x03,0x00,0x00,0xc0,0xc4,
 0x00,0x00,0x23,0x03,0x00,0x00,0xc0,0xc4,0x00,0x00,0x23,0x03,0x00,0x00,0xc0,
 0xc4,0x00,0x00,0x23,0x03,0x00,0x00,0xc0,0xc4,0x00,0x00,0x23,0xc3,0x00,0x00,
 0xc3,0xc4,0x00,0x00,0x23,0xc3,0x00,0x00,0xc3,0xc4,0x00,0x00,0x23,0xc3,0x00,
 0x00,0xc3,0xc4,0x00,0x00,0x23,0xc3,0x00,0x00,0xc3,0xc4,0x00,0x00,0x23,0xc3,
 0x00,0x00,0xc3,0xc4,0x00,0x00,0xa3,0xff,0xff,0xff,0xff,0xc5,0x00,0x00,0xe3,
 0xff,0xff,0xff,0xff,0xc7,0x00,0x00,0xe3,0x70,0x00,0x00,0x0e,0xc7,0x00,0x00,
 0x73,0x73,0x00,0x00,0xce,0xce,0x00,0x00,0x3b,0x3b,0x00,0x00,0xdc,0xdc,0x00,
 0x00,0x1f,0x1f,0x00,0x00,0xf8,0xf8,0x00,0x00,0x0f,0x7f,0x00,0x00,0xfe,0xf0,
 0x00,0x00,0x07,0x7f,0x00,0x00,0xfe,0xe0,0x00,0x00,0x03,0x0f,0x00,0x00,0xf0,
 0xc0,0x00,0x00,0x00,0x00,0x00,0x00,0x00,0x00,0x00,0x00,0x00,0x00,0x00,0x00,
 0x00,0x00,0x00,0x00,0x00,0x00,0x00,0x00,0x00,0x00,0x00,0x00,0x00,0x00,0x00,
 0x00,0x00,0x00,0x00,0x00,0x00,0x00,0x00,0x00,0x00,0x00,0x00 };
