#define _width 64
#define _height 64
static char _bits[] = {
 0x00,0x00,0x00,0x00,0x00,0x00,0x00,0x00,0x00,0x00,0x00,0x00,0x00,0x00,0x00,
 0x00,0x00,0x00,0x00,0x00,0x00,0x00,0x00,0x00,0x00,0x01,0x00,0x00,0x00,0x00,
 0x00,0x00,0x80,0x01,0x00,0xfc,0x3f,0x00,0x00,0x00,0x80,0x00,0x80,0xff,0xff,
 0x01,0x00,0x00,0x80,0x00,0xf0,0x0f,0xf0,0x0f,0x00,0x00,0x80,0x01,0xfc,0x00,
 0x00,0x3f,0x00,0x00,0x00,0x01,0x3f,0x00,0x00,0xfc,0x00,0x00,0x00,0x81,0x0f,
 0x00,0x00,0xf0,0x01,0x18,0x00,0xc1,0x03,0x00,0x00,0xc0,0x03,0x08,0x80,0xe1,
 0x01,0x00,0x00,0x80,0x07,0x08,0x00,0x70,0x00,0x00,0x00,0x00,0x0e,0x18,0x00,
 0x38,0x00,0x00,0x00,0x00,0x1c,0x10,0x00,0x1c,0x00,0x00,0x00,0x00,0x38,0x30,
 0x00,0x0e,0x00,0x00,0x00,0x00,0x70,0x20,0x00,0xcf,0xff,0x03,0xc0,0xff,0xf3,
 0x10,0x00,0xc7,0xff,0x03,0xc0,0xff,0xe3,0x10,0x80,0x03,0x00,0x00,0x00,0x00,
 0xc0,0x11,0x80,0x03,0x1c,0x00,0x00,0x38,0xc0,0x11,0xc0,0x01,0xff,0x00,0x00,
 0xff,0x80,0x13,0xc0,0x01,0xff,0x00,0x00,0xff,0x80,0x23,0xc0,0x80,0xc3,0x31,
 0x8c,0xc3,0x01,0x23,0xe0,0x80,0xc1,0x31,0x8c,0x83,0x01,0x07,0x60,0x80,0xe3,
 0x30,0x0c,0xc7,0x01,0x06,0x60,0x00,0xf7,0x30,0x0c,0xef,0x00,0x06,0x70,0x00,
 0x7f,0x38,0x1c,0xfe,0x00,0x0e,0x70,0x00,0x3e,0x18,0x18,0x7c,0x00,0x0e,0x30,
 0x00,0x00,0x1c,0x38,0x00,0x00,0x0c,0x30,0x00,0x00,0x0c,0x30,0x00,0x00,0x0c,
 0x30,0x00,0x00,0x0e,0x70,0x00,0x00,0x0c,0x30,0x00,0x00,0x06,0x60,0x00,0x00,
 0x0c,0x30,0x00,0x00,0x00,0x00,0x00,0x00,0x0c,0x30,0x00,0x00,0x00,0x00,0x00,
 0x00,0x0c,0x30,0x00,0x80,0x01,0x80,0x01,0x00,0x0c,0x30,0x00,0x80,0x03,0xc0,
 0x01,0x00,0x0c,0x70,0x00,0x80,0x1f,0xf8,0x01,0x00,0x0e,0x70,0x00,0x00,0x3f,
 0xfc,0x00,0x00,0x0e,0x60,0x00,0x00,0xf0,0x0f,0x00,0x00,0x06,0x60,0x00,0x00,
 0xe0,0x07,0x00,0x00,0x06,0xe0,0x00,0x00,0x00,0x00,0x00,0x00,0x07,0xc0,0x00,
 0x00,0x00,0x00,0x00,0x00,0x03,0xc0,0x01,0x00,0x00,0x00,0x00,0x80,0x03,0xd0,
 0x01,0x00,0x00,0x00,0x00,0x80,0x03,0x90,0x03,0xe0,0x03,0xc0,0x07,0xc0,0x01,
 0x98,0x03,0xf8,0xff,0xff,0x1f,0xc0,0x01,0x08,0x07,0x38,0xfe,0x7f,0x1c,0xe0,
 0x00,0x18,0x0e,0x10,0x00,0x00,0x08,0x70,0x00,0x10,0x0e,0x00,0x00,0x00,0x00,
 0x70,0x00,0x30,0x1c,0x00,0x00,0x00,0x00,0x38,0x00,0x20,0x38,0x00,0x00,0x00,
 0x00,0x1c,0x00,0x20,0xf0,0x00,0x00,0x00,0x00,0x0f,0x00,0x00,0xe0,0x01,0x00,
 0x00,0x80,0x07,0x00,0x00,0xc0,0x03,0x00,0x00,0xc0,0x03,0x00,0x00,0x80,0x0f,
 0x00,0x00,0xf0,0x01,0x00,0x00,0x00,0x1f,0x00,0x00,0xf8,0x00,0x00,0x00,0x00,
 0xfc,0x00,0x00,0x3f,0x00,0x00,0x00,0x00,0xf0,0x0f,0xf0,0x0f,0x00,0x00,0x00,
 0x00,0x80,0xff,0xff,0x01,0x00,0x00,0x00,0x00,0x00,0xfc,0x3f,0x00,0x00,0x00,
 0x00,0x00,0x00,0x00,0x00,0x00,0x00,0x00,0x00,0x00,0x00,0x00,0x00,0x00,0x00,
 0x00,0x00,0x00,0x00,0x00,0x00,0x00,0x00,0x00,0x00,0x00,0x00,0x00,0x00,0x00,
 0x00,0x00 };
