#define humidity_width 16
#define humidity_height 16
static unsigned char humidity_bits[] = {
   0x00, 0x00, 0x80, 0x01, 0xc0, 0x03, 0xe0, 0x07, 0x70, 0x0e, 0x30, 0x0c,
   0x38, 0x1c, 0x18, 0x18, 0x1c, 0x38, 0x1c, 0x38, 0x1c, 0x38, 0x38, 0x1c,
   0xf8, 0x1f, 0xf0, 0x0f, 0xc0, 0x03, 0x00, 0x00 };
