#define pressure_width 16
#define pressure_height 16
static unsigned char pressure_bits[] = {
   0x00, 0x00, 0x00, 0x00, 0xc0, 0x01, 0xc0, 0x01, 0xc0, 0x01, 0xc0, 0x01,
   0xc0, 0x01, 0xce, 0x39, 0xde, 0x3d, 0xfe, 0x3f, 0xfc, 0x1f, 0xf8, 0x0f,
   0xf0, 0x07, 0xe0, 0x03, 0xc0, 0x01, 0x00, 0x00 };
